<svg width="73" height="73" viewBox="0 0 73 73" fill="none" xmlns="http://www.w3.org/2000/svg">
<path d="M36.5 9.125V45.625" stroke="black" stroke-width="7" stroke-linecap="round" stroke-linejoin="round"/>
<path d="M24.3333 33.4584L36.4999 45.625L48.6666 33.4584" stroke="black" stroke-width="7" stroke-linecap="round" stroke-linejoin="round"/>
<path d="M24.3333 15.2084H12.1666C10.5532 15.2084 9.00586 15.8493 7.86502 16.9901C6.72417 18.131 6.08325 19.6783 6.08325 21.2917V51.7084C6.08325 53.3218 6.72417 54.8691 7.86502 56.0099C9.00586 57.1508 10.5532 57.7917 12.1666 57.7917H60.8332C62.4466 57.7917 63.994 57.1508 65.1348 56.0099C66.2757 54.8691 66.9166 53.3218 66.9166 51.7084V21.2917C66.9166 19.6783 66.2757 18.131 65.1348 16.9901C63.994 15.8493 62.4466 15.2084 60.8332 15.2084H48.6666" stroke="black" stroke-width="7" stroke-linecap="round" stroke-linejoin="round"/>
</svg>
