<?xml version="1.0" encoding="UTF-8"?>
<svg version="1.1" xmlns="http://www.w3.org/2000/svg" width="501" height="498">
<path d="M0 0 C2.69849689 0.0031451 5.39587704 -0.02033719 8.09423828 -0.0456543 C24.21015793 -0.10519915 39.95803472 1.76913035 55.53564453 6.00317383 C56.96239502 6.38662964 56.96239502 6.38662964 58.41796875 6.77783203 C90.42960291 15.66700871 118.37098398 31.81104364 142.77392578 54.23754883 C144.37368167 55.6679188 146.02102516 57.04623001 147.70361328 58.37817383 C151.32460589 61.30804713 154.12117519 64.74541078 157.09814453 68.31567383 C157.57880371 68.88930664 158.05946289 69.46293945 158.5546875 70.05395508 C195.1760822 113.89694148 213.25930248 167.82781699 208.58569336 225.04174805 C208.18940494 229.14799662 207.67792386 233.23154259 207.09814453 237.31567383 C206.99050781 238.08314941 206.88287109 238.850625 206.77197266 239.64135742 C203.34073943 262.57924847 195.30886803 286.20259646 183.42236328 306.12426758 C182.94412109 306.92993164 182.46587891 307.7355957 181.97314453 308.56567383 C181.55806641 309.21020508 181.14298828 309.85473633 180.71533203 310.51879883 C179.88346211 312.32283367 179.88346211 312.32283367 180.76972103 314.12351799 C182.44353145 316.88562907 184.4460799 318.90583117 186.73573303 321.18704224 C187.21042839 321.66274088 187.68512375 322.13843952 188.17420381 322.62855327 C189.76401677 324.21931789 191.36086249 325.80282807 192.95776367 327.38647461 C194.0997154 328.52622488 195.24121955 329.66642374 196.38230896 330.80703735 C198.83922477 333.2610205 201.29926332 335.71181429 203.76176643 338.16019058 C207.65281588 342.02898546 211.53677537 345.90484552 215.41978455 349.78170776 C221.55941379 355.90995648 227.70369841 362.03351312 233.85002178 368.1550473 C244.86466242 379.12534479 255.87370704 390.10125131 266.87757391 401.08235538 C270.74168951 404.93804646 274.60859577 408.79091084 278.47774327 412.64155221 C280.87968794 415.03287999 283.27962419 417.42621582 285.67905617 419.82006454 C286.79525402 420.93278189 287.91232307 422.04462608 289.03030777 423.1555481 C290.55167539 424.66751278 292.06997441 426.18249306 293.58753967 427.69827271 C294.86539636 428.97085025 294.86539636 428.97085025 296.16906834 430.26913643 C299.83467846 434.15794509 299.55848312 437.78136769 299.49658203 442.95629883 C297.70460338 458.06513848 283.33341676 469.30049551 273.28564453 479.50317383 C272.3775 480.44870117 271.46935547 481.39422852 270.53369141 482.3684082 C262.46322493 490.54139295 253.30848934 498.20630918 241.41064453 498.81567383 C240.41677734 498.88786133 239.42291016 498.96004883 238.39892578 499.03442383 C233.36426214 497.93811837 230.70113811 494.86825129 227.09814453 491.31567383 C226.23874268 490.48664551 225.37934082 489.65761719 224.49389648 488.8034668 C222.15327688 486.52698789 219.83101157 484.23424398 217.52246094 481.92529297 C216.07779457 480.48285526 214.62524599 479.04865818 213.17236328 477.61450195 C211.8053125 476.25035156 211.8053125 476.25035156 210.41064453 474.85864258 C209.58177734 474.03388428 208.75291016 473.20912598 207.89892578 472.359375 C206.09814453 470.31567383 206.09814453 470.31567383 206.09814453 468.31567383 C205.54642578 468.08879883 204.99470703 467.86192383 204.42626953 467.62817383 C201.41122036 465.92841456 199.28584084 463.76762567 196.84814453 461.31567383 C195.95611328 460.42879883 195.06408203 459.54192383 194.14501953 458.62817383 C192.09814453 456.31567383 192.09814453 456.31567383 192.09814453 454.31567383 C191.45876953 454.04754883 190.81939453 453.77942383 190.16064453 453.50317383 C188.09814453 452.31567383 188.09814453 452.31567383 187.09814453 449.31567383 C186.52064453 449.02692383 185.94314453 448.73817383 185.34814453 448.44067383 C182.30589208 446.9195476 180.35971946 444.82853486 178.09814453 442.31567383 C178.09814453 441.65567383 178.09814453 440.99567383 178.09814453 440.31567383 C177.45876953 440.04754883 176.81939453 439.77942383 176.16064453 439.50317383 C174.09814453 438.31567383 174.09814453 438.31567383 173.09814453 435.31567383 C172.52064453 435.02692383 171.94314453 434.73817383 171.34814453 434.44067383 C168.30589208 432.9195476 166.35971946 430.82853486 164.09814453 428.31567383 C164.09814453 427.65567383 164.09814453 426.99567383 164.09814453 426.31567383 C163.45876953 426.04754883 162.81939453 425.77942383 162.16064453 425.50317383 C160.09814453 424.31567383 160.09814453 424.31567383 159.09814453 421.31567383 C157.77703764 420.62509523 156.4422499 419.96034659 155.09814453 419.31567383 C153.67626953 417.83520508 153.67626953 417.83520508 152.34814453 416.12817383 C150.11154519 413.40020038 147.79213756 411.093229 145.09814453 408.81567383 C141.91858478 406.11786555 139.3009824 403.27999819 136.66064453 400.06567383 C134.34429482 397.47136215 131.69201504 395.31922182 129.04345703 393.07348633 C126.62332396 390.8866191 124.61794341 388.47541532 122.55126953 385.96020508 C120.30587441 383.41904555 117.76097802 381.40790014 115.09814453 379.31567383 C114.35693359 379.80036133 113.61572266 380.28504883 112.85205078 380.78442383 C103.93807265 386.45794724 94.73665498 391.00843414 85.09814453 395.31567383 C84.09267578 395.77844727 83.08720703 396.2412207 82.05126953 396.71801758 C33.76400543 418.06535326 -23.1211855 416.68432067 -72.00878906 398.44995117 C-92.16659841 390.54672904 -109.70534261 379.29947311 -126.90185547 366.31567383 C-127.70107422 365.75750977 -128.50029297 365.1993457 -129.32373047 364.62426758 C-130.10490234 363.97651367 -130.10490234 363.97651367 -130.90185547 363.31567383 C-130.90185547 362.65567383 -130.90185547 361.99567383 -130.90185547 361.31567383 C-131.47677734 361.06382324 -132.05169922 360.81197266 -132.64404297 360.55249023 C-146.0928853 353.18529352 -157.43617993 336.89316458 -165.90185547 324.31567383 C-166.40265625 323.57881348 -166.90345703 322.84195312 -167.41943359 322.08276367 C-181.96715104 300.47512452 -192.20800881 276.76912361 -197.90185547 251.31567383 C-198.08377441 250.56157227 -198.26569336 249.8074707 -198.453125 249.03051758 C-205.01893424 221.0134381 -204.6933467 188.21004713 -197.90185547 160.31567383 C-197.59634766 158.96916748 -197.59634766 158.96916748 -197.28466797 157.59545898 C-191.19066831 131.01414721 -179.66866528 105.71122092 -163.1640625 83.98364258 C-161.91010745 82.32657858 -160.68491166 80.65085116 -159.46044922 78.97192383 C-148.13314029 63.72463691 -134.23690177 50.4719686 -118.90185547 39.31567383 C-118.08072266 38.69950195 -117.25958984 38.08333008 -116.41357422 37.44848633 C-82.81508615 12.94135386 -41.44141978 -0.10049563 0 0 Z M-100.02685547 115.56567383 C-123.98282801 142.63131588 -135.5002845 179.21503922 -133.63037109 215.0612793 C-131.5831091 244.63801128 -119.5337709 273.99503954 -99.90185547 296.31567383 C-99.24185547 296.31567383 -98.58185547 296.31567383 -97.90185547 296.31567383 C-97.65048828 296.8905957 -97.39912109 297.46551758 -97.14013672 298.05786133 C-89.54365158 311.90886578 -71.4323083 321.24811988 -57.90185547 328.31567383 C-57.27085937 328.65236084 -56.63986328 328.98904785 -55.98974609 329.3359375 C-25.85791406 345.00886365 10.96084833 346.74467503 43.16064453 337.06567383 C63.2029691 330.59866411 80.60671573 320.58930279 96.09814453 306.31567383 C97.04302734 305.45329102 97.98791016 304.5909082 98.96142578 303.70239258 C125.61625273 278.25400759 139.41860529 242.34107863 140.47314453 205.81567383 C139.58041579 174.89479649 129.84280244 142.77309469 109.09814453 119.31567383 C108.36595703 118.47520508 107.63376953 117.63473633 106.87939453 116.76879883 C104.65214568 114.25170253 102.38571355 111.77795948 100.09814453 109.31567383 C99.48583984 108.63762695 98.87353516 107.95958008 98.24267578 107.26098633 C92.80983896 101.49221717 86.51029162 97.04151877 79.9855957 92.6015625 C78.64967558 91.69142263 77.32250342 90.7683803 76.00170898 89.83642578 C70.62760177 86.11425623 65.18318115 83.27975945 59.16064453 80.75317383 C58.25185547 80.36895264 57.34306641 79.98473145 56.40673828 79.58886719 C50.55923004 77.17870428 44.6887673 75.0835482 38.59814453 73.37817383 C37.93049072 73.1911792 37.26283691 73.00418457 36.57495117 72.81152344 C25.60960816 69.95453498 14.65405697 68.94898461 3.34814453 69.00317383 C1.51171387 69.01054565 1.51171387 69.01054565 -0.36181641 69.01806641 C-39.0688469 69.51660478 -73.71725373 87.85618717 -100.02685547 115.56567383 Z " fill="#FCFCFC" transform="translate(201.90185546875,-0.315673828125)"/>
</svg>
